<?xml version="1.0" encoding="UTF-8" standalone="no"?>
<svg
   version="1.1"
   id="Layer_1"
   x="0px"
   y="0px"
   width="100%"
   viewBox="0 0 1008 528"
   enable-background="new 0 0 1008 528"
   xml:space="preserve"
   sodipodi:docname="out.svg"
   inkscape:version="1.3.1 (9b9bdc1480, 2023-11-25, custom)"
   inkscape:export-filename="logo (2) (2).svg"
   inkscape:export-xdpi="96"
   inkscape:export-ydpi="96"
   xmlns:inkscape="http://www.inkscape.org/namespaces/inkscape"
   xmlns:sodipodi="http://sodipodi.sourceforge.net/DTD/sodipodi-0.dtd"
   xmlns="http://www.w3.org/2000/svg"
   xmlns:svg="http://www.w3.org/2000/svg"><defs
   id="defs12"><linearGradient
     id="swatch16"
     inkscape:swatch="solid"><stop
       style="stop-color:#000000;stop-opacity:0;"
       offset="0"
       id="stop16" /></linearGradient></defs><sodipodi:namedview
   id="namedview12"
   pagecolor="#ffffff"
   bordercolor="#000000"
   borderopacity="0.25"
   inkscape:showpageshadow="2"
   inkscape:pageopacity="0.0"
   inkscape:pagecheckerboard="0"
   inkscape:deskcolor="#d1d1d1"
   inkscape:zoom="1.3402778"
   inkscape:cx="540.93263"
   inkscape:cy="264.12435"
   inkscape:window-width="1452"
   inkscape:window-height="752"
   inkscape:window-x="208"
   inkscape:window-y="55"
   inkscape:window-maximized="0"
   inkscape:current-layer="Layer_1"
   showgrid="false" />
<path
   fill="#000000"
   opacity="1.000000"
   stroke="none"
   d=" M668.613403,299.999939   C668.616333,262.337189 668.600464,225.174423 668.632751,188.011703   C668.642395,176.945023 674.471863,167.938629 683.782104,164.336639   C694.443970,160.211731 707.370850,162.484924 714.148071,170.644974   C725.424133,184.221893 736.211792,198.205658 747.144287,212.066116   C752.300720,218.603470 757.362000,225.217422 762.379333,231.862442   C765.877563,236.495560 766.754700,236.564590 770.381653,231.879944   C784.554749,213.574097 798.771973,195.301910 812.854309,176.926407   C819.821350,167.835342 828.115051,161.812775 840.297241,162.615158   C853.071533,163.456558 862.864685,172.951111 863.339478,185.737976   C864.984436,230.042755 863.670532,274.365723 864.029053,318.679382   C864.151672,333.831421 864.805664,349.017181 863.399292,364.139771   C862.132324,377.762451 850.778748,386.311462 837.930725,385.861786   C823.733887,385.364960 814.626770,375.571167 814.617432,361.729797   C814.596558,330.733093 814.656372,299.736298 814.612732,268.739655   C814.609558,266.518799 815.411133,264.068604 812.869690,261.223877   C801.216187,276.163757 789.712646,290.911407 778.219971,305.645111   C774.428528,302.995514 775.524536,300.320221 776.064880,297.768707   C776.837585,294.119659 776.587280,290.445282 773.352051,288.330811   C768.980469,285.473724 764.641479,281.354736 758.640625,285.614380   C755.086609,288.137177 753.410828,290.944916 754.505920,295.332245   C755.125122,297.812866 756.128235,300.385620 755.125244,303.000458   C751.902588,303.698944 751.218506,301.194550 749.969238,299.623779   C741.468323,288.934601 733.037720,278.189331 724.497253,267.531982   C723.218506,265.936340 722.189453,263.760651 719.570801,263.738159   C717.506409,265.443512 718.253235,267.773956 718.252319,269.816284   C718.239197,300.313110 718.295410,330.809998 718.333313,361.306854   C718.351257,375.722717 708.479004,385.477631 693.701172,385.651184   C679.690491,385.815735 668.827637,375.759094 668.687805,361.961182   C668.480225,341.475952 668.620667,320.987183 668.613403,299.999939  z"
   id="path1" />
<path
   fill="#000000"
   opacity="1.000000"
   stroke="none"
   d=" M319.181641,312.644562   C303.429810,270.070435 313.586304,222.707169 347.836823,192.865265   C366.930389,176.229355 389.257446,167.842697 414.957428,167.454468   C456.522156,166.826614 495.277924,193.518539 510.668121,232.335846   C533.682800,290.383911 504.747894,357.080963 444.203552,376.751587   C414.105499,386.530304 386.755280,380.202484 360.636200,363.572601   C341.126984,351.151245 328.313904,333.765900 319.181641,312.644562  M421.710968,324.195374   C424.141632,323.664520 426.642487,323.346100 428.992188,322.570160   C454.235840,314.234009 468.861572,288.567932 463.264954,262.551086   C458.682831,241.250351 439.637238,223.883820 419.488922,222.364456   C386.499237,219.876785 362.462006,249.202438 365.979187,279.227478   C368.851318,303.746277 391.605713,327.733429 421.710968,324.195374  z"
   id="path2" />
<path
   fill="#000000"
   opacity="1.000000"
   stroke="none"
   d=" M139.688187,210.712524   C163.285583,179.694504 193.951050,162.751236 232.924255,163.909363   C260.123352,164.717606 284.462524,173.981613 303.134521,194.858093   C311.838531,204.589737 312.879211,217.160400 306.321869,225.451721   C298.246643,235.662277 284.267456,238.762070 272.627258,232.727051   C265.103912,228.826462 258.120300,223.961975 249.985306,221.157730   C216.900894,209.753036 182.978897,228.319626 174.983170,262.370087   C167.261948,295.251526 193.151230,328.580200 226.937820,329.807251   C241.615067,330.340271 254.375504,325.713867 266.379425,317.925232   C273.287567,313.442993 280.633087,311.033783 289.084015,312.566406   C306.030762,315.639801 318.352112,335.441986 304.024811,352.210602   C292.154449,366.103638 276.529602,374.280396 259.367004,379.280609   C220.918991,390.482056 187.081421,381.092529 156.286667,356.277496   C148.079529,349.664093 141.001648,342.665131 136.139420,333.607391   C129.572144,321.373383 125.528687,308.070801 122.912140,294.520233   C118.971497,274.112518 120.425179,253.792801 126.680946,233.953506   C129.348846,225.492630 134.204224,218.093765 139.688187,210.712524  z"
   id="path3" />
<path
   fill="#000000"
   opacity="1.000000"
   stroke="none"
   d=" M535.639648,227.000320   C535.633667,213.002960 535.567627,199.505173 535.645264,186.008240   C535.717346,173.471558 545.060669,164.001434 557.649170,163.523697   C572.626587,162.955292 581.667542,168.920212 584.733948,181.584335   C585.273315,183.811996 585.313477,186.199051 585.315247,188.512680   C585.348694,232.005081 585.337769,275.497498 585.345642,318.989899   C585.347473,328.852631 587.714233,331.139648 597.382324,330.994537   C608.044922,330.834473 618.709045,330.743408 629.372864,330.703217   C642.821106,330.652557 648.483215,335.292511 649.827393,348.441986   C650.568176,355.688904 650.857788,363.081390 649.408020,370.344025   C647.772949,378.534546 641.249512,384.266296 632.884460,384.306427   C606.389832,384.433533 579.893494,384.457031 553.399292,384.291443   C543.370972,384.228790 535.600830,375.034119 535.604736,363.974457   C535.620728,318.483063 535.630371,272.991669 535.639648,227.000320  z"
   id="path4" />
<path
   fill="#000000"
   opacity="1.000000"
   stroke="none"
   d=" M461.711548,124.960495   C461.707520,117.493774 461.718079,110.520416 461.689514,103.547211   C461.680603,101.373268 461.907593,99.264999 462.566437,97.171265   C463.741730,93.436333 466.543915,91.850021 470.104767,91.834404   C473.819794,91.818115 476.266113,93.956665 477.302521,97.564110   C478.280273,100.967575 478.218658,104.467003 478.073303,107.948616   C477.693176,117.053429 478.833649,126.185242 477.440918,135.277908   C476.784729,139.561874 474.273651,141.915787 470.219543,142.175659   C465.962128,142.448547 463.644287,139.703751 462.412201,135.838516   C461.321686,132.417587 461.870361,128.919205 461.711548,124.960495  z"
   id="path5" />
<path
   fill="#000000"
   opacity="1.000000"
   stroke="none"
   d=" M518.536377,402.340302   C525.849792,402.486542 528.246216,404.754150 528.309265,411.560516   C528.407959,422.213654 528.399719,432.868622 528.328186,443.522095   C528.294312,448.563080 524.945435,452.262207 520.692566,452.282379   C515.907715,452.305084 512.737488,448.945831 512.686707,443.414124   C512.587463,432.594666 512.681458,421.773590 512.617676,410.953644   C512.593384,406.831512 514.180176,403.897339 518.536377,402.340302  z"
   id="path6" />
<path
   fill="#000000"
   opacity="1.000000"
   stroke="none"
   d=" M212.708679,278.951813   C211.279755,268.976929 215.618927,262.010681 223.935867,260.447601   C231.668182,258.994385 238.865204,264.257416 240.547852,272.595551   C241.886734,279.230194 237.175293,286.862274 230.477341,288.908752   C222.803635,291.253418 216.230820,287.704712 212.708679,278.951813  z"
   id="path7" />
<path
   fill="#000000"
   opacity="1.000000"
   stroke="none"
   d=" M627.827393,217.950851   C628.256165,211.529266 628.577637,205.578140 628.526794,199.585678   C628.476501,193.662766 631.454651,190.539673 636.196167,190.555054   C641.285828,190.571548 644.210876,193.800873 644.331848,199.803772   C644.469116,206.615341 644.418274,213.430481 644.512695,220.243195   C644.602234,226.706802 642.061890,230.191650 636.952881,230.456604   C631.641357,230.732071 628.345825,227.298141 627.819519,220.903839   C627.751648,220.078842 627.816284,219.242950 627.827393,217.950851  z"
   id="path8" />
<path
   fill="#000000"
   opacity="1.000000"
   stroke="none"
   d=" M396.986176,112.357544   C394.662231,117.248093 390.993347,119.178879 386.240631,117.880699   C382.020050,116.727875 380.391937,113.422371 380.617889,109.062149   C380.909149,103.441872 383.569092,100.632530 388.855530,100.658661   C394.147888,100.684822 397.280029,103.935867 397.322449,109.487404   C397.328766,110.311607 397.186920,111.136940 396.986176,112.357544  z"
   id="path9" />
<path
   fill="#000000"
   opacity="1.000000"
   stroke="none"
   d=" M426.870667,429.853210   C430.681000,426.830505 434.351898,426.890869 437.609650,429.712646   C440.646973,432.343475 440.560028,435.908966 438.946838,439.306915   C437.308655,442.757477 434.293915,443.889984 430.639557,443.268982   C425.206543,442.345734 423.312225,436.137054 426.870667,429.853210  z"
   id="path10" />
<path
   fill="#000000"
   opacity="1.000000"
   stroke="none"
   d=" M553.997192,114.625450   C555.746704,116.412857 557.297852,117.977615 554.764709,120.333641   C552.190613,118.144470 550.051941,115.680687 546.245789,114.056839   C549.464050,112.359306 551.600769,113.108551 553.997192,114.625450  z"
   id="path11" />

<ellipse
   style="fill:#15fada;fill-opacity:1;stroke-width:0.950042"
   id="path13"
   cx="766.78491"
   cy="297.88739"
   rx="14.87164"
   ry="14.801055" /><ellipse
   style="fill:#15fada;fill-opacity:1;stroke-width:0.795379"
   id="path1-0"
   cx="591.25519"
   cy="425.59393"
   rx="9.7409744"
   ry="9.7630177" /><path
   style="fill:#000000;fill-opacity:0"
   id="path14"
   sodipodi:type="arc"
   sodipodi:cx="558.86292"
   sodipodi:cy="125.81462"
   sodipodi:rx="21.351542"
   sodipodi:ry="16.504299"
   sodipodi:start="0"
   sodipodi:end="4.9111966"
   sodipodi:arc-type="slice"
   d="m 580.21446,125.81462 a 21.351542,16.504299 0 0 1 -14.17078,15.54294 21.351542,16.504299 0 0 1 -23.70236,-5.08841 21.351542,16.504299 0 0 1 -1.77197,-18.96552 21.351542,16.504299 0 0 1 22.51051,-7.66822 l -4.21694,16.17921 z" /><path
   style="fill:#000000;fill-opacity:0;opacity:1"
   id="path16"
   sodipodi:type="arc"
   sodipodi:cx="600.13751"
   sodipodi:cy="100.14355"
   sodipodi:rx="39.911709"
   sodipodi:ry="34.46664"
   sodipodi:start="0"
   sodipodi:end="4.9111966"
   sodipodi:arc-type="slice"
   d="m 640.04922,100.14355 a 39.911709,34.46664 0 0 1 -26.48895,32.45899 39.911709,34.46664 0 0 1 -44.30602,-10.62635 39.911709,34.46664 0 0 1 -3.31227,-39.606508 39.911709,34.46664 0 0 1 42.07812,-16.013878 l -7.88259,33.787746 z" /><path
   style="opacity:1;fill:#000000;fill-opacity:1;stroke-width:0.203328"
   id="path18"
   sodipodi:type="arc"
   sodipodi:cx="551.66974"
   sodipodi:cy="120.12989"
   sodipodi:rx="10.299351"
   sodipodi:ry="9.9723406"
   sodipodi:start="0"
   sodipodi:end="6.0664713"
   sodipodi:arc-type="arc"
   d="m 561.96909,120.12989 a 10.299351,9.9723406 0 0 1 -9.74162,9.95771 10.299351,9.9723406 0 0 1 -10.79668,-8.87925 10.299351,9.9723406 0 0 1 8.5723,-10.91937 10.299351,9.9723406 0 0 1 11.72509,7.69664"
   sodipodi:open="true" /><path
   style="opacity:1;fill:none;fill-opacity:1;stroke:#15fada;stroke-width:2.991;stroke-dasharray:none;stroke-opacity:1;stroke-linecap:round"
   id="path19"
   sodipodi:type="arc"
   sodipodi:cx="282.24359"
   sodipodi:cy="-417.26175"
   sodipodi:rx="104.38503"
   sodipodi:ry="106.95217"
   sodipodi:start="0"
   sodipodi:end="1.0926455"
   sodipodi:open="true"
   sodipodi:arc-type="arc"
   d="m 386.62862,-417.26175 a 104.38503,106.95217 0 0 1 -56.35349,94.9572"
   transform="rotate(89.178621)" /><path
   style="opacity:1;fill:none;fill-opacity:1;stroke:#9177ba;stroke-width:3.10137;stroke-linecap:round;stroke-dasharray:none;stroke-opacity:1"
   id="path20"
   sodipodi:type="arc"
   sodipodi:cx="126.42876"
   sodipodi:cy="-349.46353"
   sodipodi:rx="46.996418"
   sodipodi:ry="72.237267"
   sodipodi:start="0"
   sodipodi:end="1.0926455"
   sodipodi:open="true"
   sodipodi:arc-type="arc"
   d="m 173.42517,-349.46353 a 46.996418,72.237267 0 0 1 -25.37157,64.13566"
   transform="matrix(-0.6423346,0.76642433,-0.76809123,-0.64034043,0,0)" /><path
   style="fill:none;fill-opacity:1;stroke:#d5b994;stroke-width:3.08232;stroke-linecap:round;stroke-dasharray:none;stroke-opacity:1"
   id="path20-1"
   sodipodi:type="arc"
   sodipodi:cx="-198.12688"
   sodipodi:cy="-278.7569"
   sodipodi:rx="45.802536"
   sodipodi:ry="73.212494"
   sodipodi:start="0"
   sodipodi:end="1.0926455"
   sodipodi:open="true"
   sodipodi:arc-type="arc"
   d="m -152.32434,-278.7569 a 45.802536,73.212494 0 0 1 -24.72704,65.00152"
   transform="matrix(-0.99467391,0.10307192,0.10542865,-0.99442687,0,0)" /></svg>
